<svg width="204" height="52" viewBox="0 0 204 52" fill="none" xmlns="http://www.w3.org/2000/svg">
<path d="M89.9594 21.7086H75.7321V27.3789H83.3119C82.2985 30.0924 79.8261 31.7533 76.0564 31.7533C70.5439 31.7533 67.1391 28.2294 67.1391 23.4095C67.1391 18.428 70.7062 14.9041 75.4889 14.9041C78.691 14.9041 81.2448 16.3625 82.42 18.2255L87.9327 15.0662C85.5412 11.259 80.9609 8.58585 75.5294 8.58585C67.1796 8.58585 60.6538 15.1474 60.6538 23.3691C60.6538 31.51 67.0582 38.0715 75.9754 38.0715C83.9199 38.0715 89.9594 32.8063 89.9594 24.1387V21.7086ZM103.187 7.53285C104.849 7.53285 106.227 6.15571 106.227 4.49519C106.227 2.83467 104.849 1.45755 103.187 1.45755C101.525 1.45755 100.147 2.83467 100.147 4.49519C100.147 6.15571 101.525 7.53285 103.187 7.53285ZM110.888 7.53285C112.55 7.53285 113.928 6.15571 113.928 4.49519C113.928 2.83467 112.55 1.45755 110.888 1.45755C109.227 1.45755 107.849 2.83467 107.849 4.49519C107.849 6.15571 109.227 7.53285 110.888 7.53285ZM107.038 38.0715C113.28 38.0715 117.982 34.4264 117.982 28.351V9.15294H111.496V27.7839C111.496 29.9307 110.483 31.7533 107.038 31.7533C103.592 31.7533 102.579 29.9307 102.579 27.7839V9.15294H96.0939V28.351C96.0939 34.4264 100.796 38.0715 107.038 38.0715ZM136.884 9.15294H125.535V37.5044H136.884C144.707 37.5044 150.665 31.3482 150.665 23.3287C150.665 15.3092 144.707 9.15294 136.884 9.15294ZM136.884 31.267H132.02V15.3903H136.884C141.343 15.3903 144.423 18.4684 144.423 23.3287C144.423 28.189 141.343 31.267 136.884 31.267ZM163.691 31.267V26.2448H173.824V20.0885H163.691V15.3903H174.837V9.15294H157.205V37.5044H175.04V31.267H163.691ZM197.388 9.15294V24.5437L186.444 9.15294H181.58V37.5044H188.065V22.1137L199.009 37.5044H203.873V9.15294H197.388Z" fill="#232224"/>
<path d="M81.6163 50.5426C83.3806 50.5426 84.9001 49.2138 84.9001 47.2432C84.9001 45.2726 83.3806 43.9439 81.6163 43.9439C79.8431 43.9439 78.3324 45.2726 78.3324 47.2432C78.3324 49.2138 79.8431 50.5426 81.6163 50.5426ZM79.3818 47.2432C79.3818 45.833 80.4221 44.92 81.6163 44.92C82.8104 44.92 83.8507 45.833 83.8507 47.2432C83.8507 48.6534 82.8104 49.5663 81.6163 49.5663C80.4221 49.5663 79.3818 48.6534 79.3818 47.2432ZM95.2882 50.4523H96.3103V44.9833H97.9296V44.0341H93.6686V44.9833H95.2882V50.4523ZM109.973 50.5426C111.738 50.5426 113.257 49.2138 113.257 47.2432C113.257 45.2726 111.738 43.9439 109.973 43.9439C108.2 43.9439 106.689 45.2726 106.689 47.2432C106.689 49.2138 108.2 50.5426 109.973 50.5426ZM107.739 47.2432C107.739 45.833 108.779 44.92 109.973 44.92C111.167 44.92 112.208 45.833 112.208 47.2432C112.208 48.6534 111.167 49.5663 109.973 49.5663C108.779 49.5663 107.739 48.6534 107.739 47.2432ZM122.704 50.4523H123.727V46.0229H123.772L125.735 50.4523H126.495L128.467 46.0229H128.512V50.4523H129.535V44.0341H128.404L126.115 49.1414L123.835 44.0341H122.704V50.4523ZM142.257 50.5426C144.021 50.5426 145.54 49.2138 145.54 47.2432C145.54 45.2726 144.021 43.9439 142.257 43.9439C140.483 43.9439 138.973 45.2726 138.973 47.2432C138.973 49.2138 140.483 50.5426 142.257 50.5426ZM140.022 47.2432C140.022 45.833 141.062 44.92 142.257 44.92C143.451 44.92 144.491 45.833 144.491 47.2432C144.491 48.6534 143.451 49.5663 142.257 49.5663C141.062 49.5663 140.022 48.6534 140.022 47.2432ZM155.929 50.4523H156.951V44.9833H158.57V44.0341H154.309V44.9833H155.929V50.4523ZM167.872 50.4523H168.895V44.0341H167.872V50.4523ZM167.882 43.2115H168.886V42.2171H167.882V43.2115ZM180.613 50.4523H181.671L184.186 44.0341H183.083L181.147 49.1596L179.211 44.0341H178.107L180.613 50.4523Z" fill="#232224"/>
<path fill-rule="evenodd" clip-rule="evenodd" d="M2.42579 0H49.614C50.9484 0 52.0397 1.09043 52.0397 2.42393V49.5761C52.0397 50.9096 50.9484 52 49.614 52H2.42579C1.09127 52 0 50.9096 0 49.5761V2.42393C0 1.09043 1.09127 0 2.42579 0Z" fill="#CA2E3E"/>
<path fill-rule="evenodd" clip-rule="evenodd" d="M25.9476 29.1123L35.84 29.1092C34.2944 35.5025 24.7835 39.3619 18.608 33.3929C16.1402 31.0074 16.0466 28.2528 15.5245 27.3859L9.35303 27.3654C9.52789 33.9463 14.7024 39.7684 20.539 41.7386C22.8947 42.5337 25.4719 42.8485 28.0874 42.5073C32.6159 41.9171 36.3973 39.6617 39.0313 36.3052C40.3149 34.6696 41.2886 32.9815 41.9875 30.6229C42.4631 29.0168 43.1469 24.4323 42.2796 22.9732C41.9831 22.6833 38.8046 22.8377 38.3791 22.8377L26.0194 22.8357L25.9476 29.112V29.1123Z" fill="white"/>
<path fill-rule="evenodd" clip-rule="evenodd" d="M9.34375 24.5542L15.5244 24.5697C16.1203 23.536 16.3218 19.2283 21.1001 16.7694C22.3625 16.1197 23.3999 16.0836 24.5044 15.5998L24.5768 9.35625C20.2734 9.76856 17.0416 11.3441 14.167 14.244C12.7941 15.6288 11.9544 16.5918 10.9836 18.5636C10.1771 20.2024 9.45322 22.4833 9.34375 24.5542Z" fill="white"/>
<path fill-rule="evenodd" clip-rule="evenodd" d="M34.4097 20.0457L41.5267 20.0519C40.6981 17.0553 38.0122 14.2146 36.251 12.8339C34.6238 11.5582 30.2763 9.13916 27.3281 9.4305C27.556 17.2829 26.4787 15.1729 29.3486 16.1435C31.3078 16.8062 33.8794 18.7225 34.4097 20.0461" fill="white"/>
</svg>
